<?xml version="1.0" standalone="no"?>
<!DOCTYPE svg PUBLIC "-//W3C//DTD SVG 20010904//EN"
 "http://www.w3.org/TR/2001/REC-SVG-20010904/DTD/svg10.dtd">
<svg version="1.0" xmlns="http://www.w3.org/2000/svg"
 width="701.000000pt" height="356.000000pt" viewBox="0 0 701.000000 356.000000"
 preserveAspectRatio="xMidYMid meet">

<g transform="translate(0.000000,356.000000) scale(0.100000,-0.100000)"
fill="#000000" stroke="none">
<path d="M3234 3328 c13 -60 17 -160 7 -154 -6 4 -38 43 -72 87 -57 73 -65 80
-93 77 l-31 -3 4 -75 c2 -41 6 -104 10 -140 6 -65 6 -65 39 -68 l33 -3 -7 78
c-3 43 -7 80 -8 83 0 3 3 6 7 8 4 1 37 -33 72 -76 59 -73 65 -78 95 -74 l32 5
-6 61 c-3 33 -8 96 -12 139 l-6 77 -34 0 c-30 0 -34 -3 -30 -22z"/>
<path d="M3710 3312 c0 -22 -3 -87 -7 -145 l-6 -107 30 0 30 0 7 83 c3 45 9
110 12 145 l6 62 -36 0 c-35 0 -36 -1 -36 -38z"/>
<path d="M3956 3213 c-9 -64 -20 -130 -23 -146 -6 -27 -4 -28 28 -25 l33 3 12
78 c7 43 15 81 18 84 3 4 15 -16 27 -43 71 -166 63 -156 127 -154 5 0 53 272
48 276 0 1 -13 4 -29 8 -32 8 -31 9 -47 -91 -7 -40 -15 -73 -19 -73 -5 0 -26
41 -47 91 -38 89 -56 109 -98 109 -8 0 -18 -39 -30 -117z"/>
<path d="M2680 3273 c-25 -9 -68 -54 -80 -84 -31 -75 26 -180 106 -195 150
-28 242 155 129 255 -31 27 -43 31 -88 30 -29 0 -59 -3 -67 -6z m93 -54 c52
-24 65 -114 21 -148 -68 -54 -144 0 -134 94 5 50 62 77 113 54z"/>
<path d="M2360 3188 c-13 -5 -26 -11 -28 -13 -3 -2 50 -193 73 -262 7 -20 67
5 61 26 -3 9 -22 70 -41 136 -20 66 -37 121 -38 121 -1 1 -13 -3 -27 -8z"/>
<path d="M4625 3147 c-8 -19 -30 -80 -49 -135 -34 -100 -34 -100 -13 -106 38
-10 44 -7 56 37 7 23 20 58 29 77 l17 35 5 -94 c5 -86 7 -94 27 -102 20 -7 30
1 80 61 32 38 59 65 61 61 1 -4 -9 -40 -23 -81 -14 -40 -24 -74 -22 -75 1 0
14 -6 28 -12 l27 -12 50 137 49 137 -35 14 -36 15 -76 -84 -77 -83 -7 109 c-4
60 -10 112 -14 116 -4 4 -19 10 -35 13 -24 6 -29 3 -42 -28z"/>
<path d="M2075 3093 c-33 -14 -75 -31 -93 -39 -29 -12 -32 -16 -22 -34 7 -13
17 -19 27 -16 51 20 58 18 72 -21 7 -21 27 -70 43 -110 32 -76 32 -76 86 -48
1 1 -16 46 -38 100 -49 119 -49 131 -10 140 31 7 34 12 24 39 -8 21 -17 19
-89 -11z"/>
<path d="M5067 2869 c-32 -66 -57 -124 -55 -129 2 -6 35 -25 74 -44 l72 -34
10 23 c10 20 6 24 -38 45 l-49 23 15 28 c17 34 22 35 69 12 31 -15 37 -15 45
-3 15 24 12 29 -27 47 -21 10 -40 19 -42 20 -4 3 19 63 25 63 2 0 24 -10 49
-22 40 -19 47 -20 55 -8 5 8 10 18 10 22 0 8 -134 78 -147 78 -5 0 -34 -55
-66 -121z"/>
<path d="M1668 2904 c-16 -8 -28 -16 -28 -17 0 -14 41 -292 44 -294 2 -2 16 2
31 9 22 10 26 17 21 40 -5 26 -1 30 49 55 52 26 55 26 73 10 16 -15 24 -16 46
-6 14 7 26 15 26 18 0 9 -218 201 -227 201 -4 -1 -20 -8 -35 -16z m122 -145
c0 -8 -59 -33 -65 -28 -2 3 -7 29 -11 59 l-6 55 41 -40 c22 -21 41 -42 41 -46z"/>
<path d="M5408 2753 c-24 -37 -57 -90 -75 -118 -17 -27 -29 -53 -25 -57 4 -4
34 -23 66 -42 47 -28 71 -36 108 -36 43 0 52 4 87 39 60 60 66 126 20 186 -20
24 -119 95 -133 95 -3 0 -25 -30 -48 -67z m111 -34 c45 -42 46 -95 4 -141 -26
-29 -133 -16 -133 15 0 17 84 147 95 147 6 0 21 -9 34 -21z"/>
<path d="M1373 2732 l-22 -17 33 -107 c20 -65 29 -108 22 -108 -6 0 -49 29
-95 65 l-83 65 -29 -17 c-35 -21 -41 -14 107 -121 l112 -81 35 24 35 24 -25
93 c-40 154 -54 198 -61 198 -4 0 -17 -8 -29 -18z"/>
<path d="M5749 2484 c-113 -147 -105 -131 -78 -153 28 -23 16 -34 118 100 35
46 68 89 72 95 5 6 -1 19 -15 33 l-23 22 -74 -97z"/>
<path d="M3398 2523 c-1 -5 -2 -42 -2 -83 -1 -102 -20 -101 -61 2 -26 68 -33
78 -55 78 -45 0 -53 -13 -34 -53 19 -40 14 -67 -14 -67 -12 0 -25 14 -37 40
-10 22 -24 45 -31 51 -17 14 -51 5 -83 -20 l-24 -18 21 -45 c43 -87 16 -206
-65 -285 -106 -104 -135 -244 -93 -449 30 -147 66 -245 119 -326 88 -134 250
-265 387 -313 121 -43 182 -30 272 58 116 114 212 273 237 395 13 61 16 358 4
402 -3 9 2 14 11 11 53 -14 64 -13 77 4 18 26 17 31 -14 60 l-28 25 38 0 c31
0 39 4 47 26 11 27 -2 64 -21 64 -6 0 -7 19 -3 50 6 46 5 50 -13 50 -15 0 -22
9 -26 30 -8 36 -15 36 -87 9 -36 -14 -56 -17 -58 -10 -2 7 -22 34 -44 62 -47
60 -46 83 8 137 22 22 34 43 32 56 -6 39 -38 30 -95 -26 -54 -51 -55 -52 -50
-23 4 17 9 40 13 52 4 16 0 24 -16 33 -32 17 -46 7 -65 -49 -14 -43 -20 -51
-42 -51 -25 0 -25 0 -18 65 7 65 7 65 -19 65 -20 0 -27 -6 -32 -27 -28 -124
-39 -130 -69 -35 -16 52 -23 62 -42 62 -13 0 -24 -3 -25 -7z"/>
<path d="M970 2419 c-14 -5 -37 -22 -53 -37 -91 -87 -25 -243 103 -245 141 -2
204 182 90 263 -36 26 -103 35 -140 19z m111 -80 c38 -41 38 -81 0 -120 -33
-33 -50 -35 -90 -14 -33 16 -64 75 -55 102 25 68 96 84 145 32z"/>
<path d="M5980 2362 c-93 -41 -128 -146 -76 -223 31 -46 87 -73 134 -66 19 4
37 9 40 12 7 7 -39 55 -52 54 -47 -5 -86 28 -86 74 0 37 57 97 93 97 30 0 77
-45 77 -75 0 -23 42 -70 53 -58 16 15 6 91 -15 123 -38 55 -117 84 -168 62z"/>
<path d="M661 2136 l-22 -23 68 -62 c77 -70 78 -69 -65 -49 -80 11 -84 10
-105 -11 l-22 -22 55 -52 c30 -29 77 -72 103 -95 l49 -44 24 23 c22 21 23 25
10 35 -28 20 -117 106 -114 109 2 2 50 -3 106 -12 97 -14 105 -14 123 3 11 10
18 23 17 30 -2 6 -49 52 -104 102 l-101 91 -22 -23z"/>
<path d="M6260 2014 c-136 -121 -128 -110 -103 -136 l22 -21 53 46 c168 146
165 143 144 166 -11 11 -22 21 -25 21 -3 0 -44 -34 -91 -76z"/>
<path d="M6403 1808 c-109 -80 -111 -82 -96 -105 8 -13 19 -23 24 -23 4 0 37
22 73 50 39 29 66 44 66 35 0 -7 -13 -50 -30 -95 -35 -95 -36 -101 -12 -129
17 -21 17 -21 127 59 60 44 111 84 113 88 1 5 -5 19 -15 30 l-18 22 -68 -51
c-38 -28 -71 -48 -73 -46 -3 2 11 48 30 102 33 91 34 99 19 121 -8 13 -18 24
-22 24 -4 0 -57 -37 -118 -82z"/>
<path d="M372 1789 c-7 -10 -12 -23 -12 -28 0 -5 30 -31 68 -58 l67 -48 -112
-3 c-105 -2 -112 -4 -127 -27 -16 -24 -15 -24 67 -83 45 -32 97 -69 116 -82
l34 -23 18 22 c11 13 17 27 14 31 -2 4 -34 27 -70 51 -36 23 -65 46 -65 51 0
4 48 5 108 2 l107 -5 19 27 c22 31 28 25 -114 122 -111 76 -104 74 -118 51z"/>
<path d="M6667 1456 c-60 -35 -113 -68 -119 -74 -7 -7 3 -32 32 -81 37 -62 44
-69 61 -60 24 12 24 14 -6 65 l-25 43 31 16 c34 18 34 19 63 -29 19 -31 23
-33 40 -21 18 14 18 15 -3 48 -27 44 -26 51 4 65 35 16 32 17 55 -27 24 -48
30 -53 53 -36 16 12 15 17 -24 84 -22 39 -44 71 -47 71 -4 0 -56 -29 -115 -64z"/>
<path d="M125 1407 c-8 -12 -15 -24 -15 -28 0 -5 56 -40 202 -123 l47 -27 15
29 15 29 -125 71 c-124 70 -124 71 -139 49z"/>
<path d="M740 545 c0 -70 4 -115 10 -115 6 0 10 37 10 90 0 50 3 90 8 90 4 0
33 -41 64 -90 31 -50 62 -90 68 -90 6 0 10 42 10 115 0 138 -18 156 -22 23
l-3 -93 -63 93 c-34 50 -67 92 -72 92 -6 0 -10 -47 -10 -115z"/>
<path d="M1070 545 c0 -70 4 -115 10 -115 6 0 10 45 10 115 0 70 -4 115 -10
115 -6 0 -10 -45 -10 -115z"/>
<path d="M1288 643 c-80 -51 -56 -191 36 -208 50 -10 104 17 121 59 22 53 20
56 -45 56 -33 0 -60 -4 -60 -10 0 -5 20 -10 45 -10 53 0 59 -17 20 -55 -26
-27 -63 -32 -98 -13 -34 18 -46 40 -47 84 0 80 82 122 144 73 33 -26 48 -16
19 12 -28 29 -99 35 -135 12z"/>
<path d="M1600 545 c0 -89 3 -116 13 -112 6 2 13 21 14 43 1 21 2 45 2 52 1 8
20 12 61 12 l60 0 0 -55 c0 -30 5 -55 10 -55 6 0 10 45 10 115 0 70 -4 115
-10 115 -5 0 -10 -22 -10 -50 l0 -50 -59 0 c-57 0 -60 1 -65 28 -3 15 -5 36
-3 46 1 10 -4 21 -10 23 -10 4 -13 -23 -13 -112z"/>
<path d="M1920 650 c0 -5 14 -10 30 -10 l30 0 0 -105 c0 -63 4 -105 10 -105 6
0 10 42 10 105 l0 105 36 0 c21 0 33 4 29 10 -3 6 -37 10 -76 10 -39 0 -69 -4
-69 -10z"/>
<path d="M2210 545 c0 -70 4 -115 10 -115 6 0 10 45 10 115 0 70 -4 115 -10
115 -6 0 -10 -45 -10 -115z"/>
<path d="M2384 647 c-10 -27 1 -210 13 -214 9 -3 13 21 15 89 l3 93 60 -92
c33 -51 66 -93 73 -93 9 0 12 30 12 115 0 70 -4 115 -10 115 -6 0 -10 -37 -10
-90 0 -49 -3 -90 -7 -90 -5 0 -34 41 -67 90 -58 89 -72 102 -82 77z"/>
<path d="M2744 626 c-29 -29 -34 -41 -34 -79 0 -115 142 -159 201 -63 33 54
27 66 -36 66 -30 0 -55 -4 -55 -10 0 -5 18 -10 40 -10 48 0 53 -18 15 -55 -34
-35 -78 -33 -116 4 -82 82 25 211 115 140 37 -29 48 -13 13 17 -43 37 -100 33
-143 -10z"/>
<path d="M3136 652 c-7 -12 -76 -206 -76 -214 0 -20 19 -5 29 22 9 28 13 30
61 30 48 0 53 -2 63 -30 6 -16 17 -30 23 -30 12 0 -16 89 -61 196 -14 33 -28
43 -39 26z m38 -79 c23 -68 22 -73 -24 -73 -23 0 -40 5 -40 11 0 19 34 109 41
109 4 0 14 -21 23 -47z"/>
<path d="M3390 545 l0 -115 50 0 c28 0 50 5 50 10 0 6 -18 10 -40 10 l-40 0 0
105 c0 63 -4 105 -10 105 -6 0 -10 -45 -10 -115z"/>
<path d="M3630 545 l0 -115 60 0 c71 0 81 18 13 22 l-48 3 0 40 c0 40 0 40 43
43 56 4 54 22 -3 22 l-45 0 0 40 0 40 50 0 c28 0 50 5 50 10 0 6 -27 10 -60
10 l-60 0 0 -115z"/>
<path d="M4089 649 c-9 -28 -4 -209 6 -211 6 -2 11 18 13 45 l3 47 37 0 c70 0
105 54 68 105 -17 23 -121 35 -127 14z m112 -30 c8 -16 8 -28 0 -45 -9 -20
-18 -24 -51 -24 l-40 0 0 45 0 45 40 0 c30 0 42 -5 51 -21z"/>
<path d="M4370 545 c0 -66 4 -115 9 -115 6 0 11 21 13 48 2 39 7 48 24 50 15
2 27 -9 48 -48 15 -27 34 -50 42 -50 10 0 6 13 -15 47 -27 43 -28 49 -13 57
47 24 54 65 17 101 -19 20 -34 25 -75 25 l-50 0 0 -115z m109 81 c7 -8 11 -27
9 -42 -2 -22 -10 -30 -37 -37 -50 -12 -61 -4 -61 48 l0 45 39 0 c21 0 44 -6
50 -14z"/>
<path d="M4725 650 c-73 -29 -81 -158 -12 -201 80 -50 178 15 168 111 -9 77
-83 120 -156 90z m110 -35 c19 -18 25 -35 25 -68 0 -105 -126 -136 -166 -42
-40 96 70 182 141 110z"/>
<path d="M5120 574 c0 -47 -5 -94 -10 -105 -14 -25 -46 -24 -62 1 -15 23 -28
26 -28 6 0 -18 38 -46 62 -46 10 0 27 9 38 20 17 17 20 33 20 115 0 57 -4 95
-10 95 -6 0 -10 -35 -10 -86z"/>
<path d="M5300 545 l0 -115 60 0 c71 0 81 18 13 22 l-48 3 0 40 c0 40 0 40 43
43 56 4 54 22 -3 22 l-45 0 0 40 0 40 50 0 c28 0 50 5 50 10 0 6 -27 10 -60
10 l-60 0 0 -115z"/>
<path d="M5593 625 c-33 -33 -35 -39 -31 -86 7 -72 41 -104 108 -104 41 0 54
5 77 27 32 32 14 38 -24 8 -77 -60 -178 35 -131 123 17 33 39 46 79 47 24 0
42 -7 54 -20 20 -22 47 -27 39 -7 -8 22 -60 47 -99 47 -29 0 -45 -8 -72 -35z"/>
<path d="M5910 651 c0 -6 15 -11 33 -13 l32 -3 3 -102 c4 -137 22 -135 22 2
l0 105 30 0 c17 0 30 5 30 10 0 6 -32 10 -75 10 -41 0 -75 -4 -75 -9z"/>
<path d="M2700 270 c-31 -31 -27 -93 6 -119 15 -12 40 -21 56 -21 34 0 78 39
78 70 0 17 -6 20 -39 20 -22 0 -43 -4 -46 -10 -4 -6 5 -10 20 -10 41 0 29 -34
-13 -38 -41 -4 -62 32 -43 74 11 25 14 26 63 20 l52 -7 -18 20 c-26 28 -89 28
-116 1z"/>
<path d="M2940 210 l0 -80 45 0 c32 0 45 4 45 14 0 10 -9 14 -27 13 -22 -2
-29 3 -31 21 -3 18 1 22 22 22 17 0 26 6 26 16 0 10 -7 14 -22 12 -17 -2 -24
3 -26 20 -3 19 1 22 27 22 17 0 31 5 31 10 0 6 -20 10 -45 10 l-45 0 0 -80z"/>
<path d="M3140 210 c0 -63 3 -80 14 -80 8 0 16 12 18 27 4 37 20 38 40 3 9
-17 24 -30 33 -30 19 0 19 5 -2 36 -16 25 -16 27 0 36 22 12 23 74 1 82 -9 3
-36 6 -60 6 l-44 0 0 -80z m88 33 c3 -18 -1 -23 -21 -23 -30 0 -36 6 -30 31 8
28 47 21 51 -8z"/>
<path d="M3370 211 c0 -65 3 -81 15 -81 11 0 15 12 15 46 0 54 14 51 31 -7 16
-51 39 -48 59 9 19 54 30 53 30 -3 0 -33 4 -45 15 -45 12 0 15 16 15 81 0 76
-1 80 -21 77 -15 -2 -28 -18 -43 -55 -11 -29 -24 -53 -27 -53 -4 0 -15 24 -26
53 -15 38 -26 53 -42 55 -20 3 -21 0 -21 -77z"/>
<path d="M3680 223 c-13 -37 -25 -74 -28 -80 -6 -18 27 -16 34 2 8 20 73 20
80 0 6 -16 34 -21 34 -7 0 4 -11 39 -23 78 -20 58 -28 69 -48 72 -23 3 -27 -4
-49 -65z m61 0 c11 -30 -1 -49 -25 -40 -12 5 -13 12 -5 37 13 37 17 37 30 3z"/>
<path d="M3910 210 c0 -63 3 -80 14 -80 11 0 16 15 18 53 l3 52 35 -52 c20
-30 43 -53 53 -53 15 0 17 10 17 80 0 63 -3 80 -14 80 -11 0 -16 -15 -18 -52
l-3 -53 -35 52 c-20 30 -43 53 -52 53 -16 0 -18 -10 -18 -80z"/>
<path d="M4175 240 c14 -27 25 -63 25 -80 0 -23 4 -30 20 -30 16 0 20 7 20 33
0 17 8 46 18 62 31 51 34 65 13 65 -12 0 -23 -11 -30 -30 -5 -16 -14 -30 -19
-30 -5 0 -15 14 -22 30 -8 18 -20 30 -31 30 -18 0 -18 -3 6 -50z"/>
</g>
</svg>
